<svg width="24" height="24" viewBox="0 0 24 24" fill="none" xmlns="http://www.w3.org/2000/svg">
<g clip-path="url(#clip0_243_693)">
<path fill-rule="evenodd" clip-rule="evenodd" d="M12 0C18.6277 0 24 5.37234 24 12C24 18.6277 18.6277 24 12 24C5.37234 24 0 18.6277 0 12C0 5.37234 5.37234 0 12 0ZM10.4466 17.8284C10.4466 17.9114 10.5141 17.9789 10.597 17.9789H12.7439C12.8273 17.9789 12.8944 17.9114 12.8944 17.8284V11.9527H14.4511C14.5294 11.9527 14.5945 11.8931 14.6011 11.8148L14.7506 10.0448C14.7581 9.95672 14.6892 9.88125 14.6006 9.88125H12.8944V8.62547C12.8944 8.33109 13.133 8.0925 13.4273 8.0925H14.6273C14.7103 8.0925 14.7778 8.025 14.7778 7.94156V6.17156C14.7778 6.08859 14.7103 6.02109 14.6269 6.02109H12.6005C11.4108 6.02109 10.4466 6.98531 10.4466 8.17453V9.88125H9.37313C9.28969 9.88125 9.22219 9.94875 9.22219 10.0322V11.8022C9.22219 11.8856 9.28969 11.9527 9.37313 11.9527H10.4466V17.8284Z" fill="white"/>
</g>
<defs>
<clipPath id="clip0_243_693">
<rect width="24" height="24" fill="white"/>
</clipPath>
</defs>
</svg>
