<svg width="18" height="17" viewBox="0 0 18 17" fill="none" xmlns="http://www.w3.org/2000/svg">
<g clip-path="url(#clip0_113_129)">
<path d="M16.7193 16.7927L12.2426 12.5646C10.7505 13.7168 8.84666 14.2833 6.92476 14.1469C5.00287 14.0106 3.20999 13.1817 1.91698 11.8319C0.623975 10.4821 -0.0702389 8.71455 -0.0220649 6.89488C0.026109 5.0752 0.812985 3.34263 2.1758 2.05552C3.53862 0.768416 5.37311 0.0252558 7.29982 -0.0202417C9.22654 -0.0657392 11.0981 0.589907 12.5273 1.81108C13.9565 3.03226 14.8341 4.72553 14.9785 6.54065C15.1229 8.35578 14.5231 10.1539 13.3031 11.563L17.7798 15.7911C17.9165 15.9247 17.9921 16.1036 17.9903 16.2893C17.9886 16.4751 17.9098 16.6527 17.7707 16.784C17.6317 16.9154 17.4435 16.9899 17.2469 16.9915C17.0502 16.9931 16.8608 16.9217 16.7193 16.7927ZM13.4996 7.08355C13.4996 5.96279 13.1477 4.86719 12.4884 3.93531C11.8291 3.00344 10.892 2.27712 9.79569 1.84823C8.69934 1.41933 7.49294 1.30711 6.32905 1.52576C5.16516 1.74441 4.09607 2.28411 3.25695 3.07661C2.41784 3.8691 1.84639 4.87881 1.61488 5.97803C1.38337 7.07726 1.50219 8.21664 1.95631 9.25209C2.41044 10.2875 3.17948 11.1725 4.16617 11.7952C5.15286 12.4179 6.3129 12.7502 7.49959 12.7502C9.09034 12.7485 10.6154 12.151 11.7403 11.0886C12.8651 10.0263 13.4978 8.58592 13.4996 7.08355Z" fill="white"/>
</g>
<defs>
<clipPath id="clip0_113_129">
<rect width="17" height="18" fill="white" transform="matrix(-4.37114e-08 1 1 4.37114e-08 0 0)"/>
</clipPath>
</defs>
</svg>
