<svg width="56" height="56" viewBox="0 0 56 56" fill="none" xmlns="http://www.w3.org/2000/svg">
<path fill-rule="evenodd" clip-rule="evenodd" d="M28 0C43.4645 0 56 12.5355 56 28C56 43.4645 43.4645 56 28 56C12.5355 56 0 43.4645 0 28C0 12.5355 12.5355 0 28 0ZM22.1419 13.8764C16.8744 14.117 14.1072 17.0811 13.8775 22.1419C13.7025 25.9733 13.7025 30.0267 13.8775 33.8581C14.1072 38.9189 16.8744 41.883 22.1419 42.1236C25.9744 42.2975 30.0267 42.2975 33.8592 42.1236C38.92 41.8917 41.883 39.1289 42.1236 33.8581C42.2975 30.0256 42.2975 25.9755 42.1236 22.1419C41.8873 16.9837 39.0173 14.1127 33.8592 13.8764C30.0267 13.7025 25.9744 13.7025 22.1419 13.8764ZM33.7422 16.4347C37.5692 16.6086 39.3925 18.4308 39.5653 22.2589C39.7381 26.0105 39.7381 29.9895 39.5653 33.7411C39.387 37.6797 37.4697 39.3958 33.7422 39.5653C29.9884 39.737 26.0127 39.737 22.2589 39.5653C18.5303 39.3958 16.6141 37.6797 16.4347 33.7411C16.263 29.9895 16.263 26.0105 16.4347 22.2589C16.6042 18.5292 18.3214 16.6141 22.2589 16.4347C26.0127 16.263 29.9884 16.263 33.7422 16.4347ZM28 32.7359C25.3848 32.7359 23.2641 30.6162 23.2641 28C23.2652 25.3838 25.3848 23.2641 28 23.2641C30.6162 23.2641 32.737 25.3838 32.737 28C32.737 30.6152 30.6162 32.7359 28 32.7359ZM28 20.7036C23.9717 20.7036 20.7036 23.9706 20.7036 28C20.7036 32.0294 23.9706 35.2964 28 35.2964C32.0305 35.2964 35.2964 32.0294 35.2964 28C35.2964 23.9706 32.0305 20.7036 28 20.7036ZM37.2903 20.4148C37.2903 21.3566 36.5269 22.1211 35.5852 22.1211C34.6423 22.1211 33.88 21.3577 33.88 20.4159C33.88 19.4742 34.6423 18.7108 35.5852 18.7108C36.5269 18.7108 37.2903 19.4742 37.2903 20.4148Z" fill="#C32AA3"/>
</svg>
