<svg width="56" height="56" viewBox="0 0 56 56" fill="none" xmlns="http://www.w3.org/2000/svg">
<path fill-rule="evenodd" clip-rule="evenodd" d="M28 0C43.4645 0 56 12.5355 56 28C56 43.4645 43.4645 56 28 56C12.5355 56 0 43.4645 0 28C0 12.5355 12.5355 0 28 0ZM15.5269 40.9948H20.8895V23.6687H15.5269V40.9948ZM18.1825 21.4003C19.9347 21.4003 21.3544 19.9675 21.3544 18.2022C21.3544 16.4369 19.9347 15.0052 18.1825 15.0052C16.4303 15.0052 15.0117 16.4369 15.0117 18.2022C15.0117 19.9675 16.4303 21.4003 18.1825 21.4003ZM29.4623 31.9003C29.4623 29.4645 30.5845 28.012 32.7316 28.012C34.7025 28.012 35.6508 29.4055 35.6508 31.9003V40.9948H40.9883C40.9883 40.9948 40.9883 34.6653 40.9883 30.0245C40.9883 25.3838 38.3578 23.1394 34.6839 23.1394C31.0089 23.1394 29.4623 26.0028 29.4623 26.0028V23.6687H24.3184V40.9948H29.4623C29.4623 40.9948 29.4623 34.5691 29.4623 31.9003Z" fill="#0077B5"/>
</svg>
