<svg width="54" height="54" viewBox="0 0 54 54" fill="none" xmlns="http://www.w3.org/2000/svg">
<path d="M27 0.75C21.8083 0.75 16.7331 2.28954 12.4163 5.17392C8.0995 8.05831 4.73497 12.158 2.74817 16.9546C0.761374 21.7511 0.241536 27.0291 1.2544 32.1211C2.26726 37.2131 4.76733 41.8904 8.43846 45.5616C12.1096 49.2327 16.7869 51.7327 21.8789 52.7456C26.9709 53.7585 32.2489 53.2386 37.0455 51.2518C41.842 49.265 45.9417 45.9005 48.8261 41.5837C51.7105 37.2669 53.25 32.1918 53.25 27C53.2426 20.0404 50.4746 13.3679 45.5533 8.44667C40.6321 3.52545 33.9597 0.757445 27 0.75ZM39.5756 33.9506C39.224 34.3021 38.7472 34.4996 38.25 34.4996C37.7528 34.4996 37.276 34.3021 36.9244 33.9506L27 24.0262L17.0756 33.9506C16.722 34.2922 16.2484 34.4812 15.7568 34.4769C15.2651 34.4726 14.7949 34.2754 14.4472 33.9278C14.0996 33.5801 13.9024 33.1099 13.8981 32.6183C13.8939 32.1266 14.0828 31.653 14.4244 31.2994L25.6744 20.0494C26.026 19.6979 26.5028 19.5004 27 19.5004C27.4972 19.5004 27.974 19.6979 28.3256 20.0494L39.5756 31.2994C39.9271 31.651 40.1246 32.1278 40.1246 32.625C40.1246 33.1222 39.9271 33.599 39.5756 33.9506Z" fill="#F3973D"/>
</svg>
