<svg width="56" height="56" viewBox="0 0 56 56" fill="none" xmlns="http://www.w3.org/2000/svg">
<path fill-rule="evenodd" clip-rule="evenodd" d="M28 0C43.4645 0 56 12.5355 56 28C56 43.4645 43.4645 56 28 56C12.5355 56 0 43.4645 0 28C0 12.5355 12.5355 0 28 0ZM24.3753 41.5997C24.3753 41.7933 24.5328 41.9508 24.7264 41.9508H29.7358C29.9305 41.9508 30.0869 41.7933 30.0869 41.5997V27.8895H33.7192C33.9019 27.8895 34.0539 27.7506 34.0692 27.568L34.4181 23.438C34.4356 23.2323 34.2748 23.0562 34.0681 23.0562H30.0869V20.1261C30.0869 19.4392 30.6436 18.8825 31.3305 18.8825H34.1305C34.3241 18.8825 34.4816 18.725 34.4816 18.5303V14.4003C34.4816 14.2067 34.3241 14.0492 34.1294 14.0492H29.4011C26.6252 14.0492 24.3753 16.2991 24.3753 19.0739V23.0562H21.8706C21.6759 23.0562 21.5184 23.2138 21.5184 23.4084V27.5384C21.5184 27.7331 21.6759 27.8895 21.8706 27.8895H24.3753V41.5997Z" fill="#3B5998"/>
</svg>
