<svg width="57" height="57" viewBox="0 0 57 57" fill="none" xmlns="http://www.w3.org/2000/svg">
<path d="M28.9688 0.9375C23.4247 0.9375 18.0051 2.5815 13.3954 5.66162C8.78572 8.74173 5.19288 13.1196 3.07126 18.2417C0.949646 23.3637 0.394533 28.9998 1.47613 34.4374C2.55772 39.8749 5.22743 44.8696 9.14767 48.7898C13.0679 52.7101 18.0626 55.3798 23.5001 56.4614C28.9377 57.543 34.5738 56.9879 39.6959 54.8662C44.8179 52.7446 49.1958 49.1518 52.2759 44.5421C55.356 39.9324 57 34.5128 57 28.9687C57 21.5344 54.0467 14.4045 48.7898 9.14766C43.533 3.89078 36.4031 0.9375 28.9688 0.9375ZM30.1704 18.1562C32.7184 18.1591 35.1613 19.1727 36.9631 20.9744C38.7648 22.7762 39.7784 25.2191 39.7813 27.7671H37.3781C37.3762 25.8561 36.6161 24.024 35.2648 22.6727C33.9135 21.3214 32.0814 20.5613 30.1704 20.5594V18.1562ZM37.9537 45.7875C37.8808 45.7875 30.6656 45.6642 21.3872 36.5503C12.2733 27.2757 12.15 20.0567 12.15 19.9838C12.15 19.0849 17.7563 12.15 18.9952 12.15C19.4251 12.15 19.7596 12.4415 20.1258 12.8788C21.0079 13.929 24.908 20.0847 24.7286 21.1107C24.6426 21.5928 24.2333 21.9591 23.0598 22.9439C22.4815 23.3985 21.9403 23.8984 21.4414 24.4389C21.6804 25.4278 22.0354 26.3851 22.4991 27.2906C24.2269 30.843 27.0975 33.7123 30.6506 35.4384C31.5562 35.9021 32.5134 36.2571 33.5023 36.4961C34.0428 35.9972 34.5427 35.456 34.9973 34.8777C35.9822 33.7042 36.3485 33.2949 36.8306 33.2089C37.8565 33.0221 44.0122 36.9296 45.0624 37.8117C45.4997 38.1854 45.7912 38.5124 45.7912 38.9423C45.7875 40.1812 38.8526 45.7875 37.9537 45.7875ZM43.3843 27.7671C43.3803 24.2638 41.9869 20.9051 39.5097 18.4279C37.0324 15.9506 33.6737 14.5572 30.1704 14.5532V12.15C34.3108 12.1549 38.2802 13.8019 41.2079 16.7296C44.1356 19.6573 45.7826 23.6267 45.7875 27.7671H43.3843Z" fill="#F3973D"/>
</svg>
